<svg width="46" height="46" viewBox="0 0 46 46" fill="none" xmlns="http://www.w3.org/2000/svg">
<mask id="mask0_189_2282" style="mask-type:alpha" maskUnits="userSpaceOnUse" x="0" y="0" width="46" height="46">
<rect width="46" height="46" fill="#D9D9D9"/>
</mask>
<g mask="url(#mask0_189_2282)">
<path d="M9.80455 39.2906C8.85175 39.2906 8.03609 38.9514 7.35759 38.2728C6.67909 37.5943 6.33984 36.7787 6.33984 35.8259V10.1722C6.33984 9.21936 6.67909 8.40371 7.35759 7.72521C8.03609 7.04668 8.85175 6.70741 9.80455 6.70741H25.0273C25.4346 6.70741 25.776 6.84524 26.0515 7.12088C26.327 7.39653 26.4647 7.73808 26.4647 8.14553C26.4647 8.55302 26.327 8.89436 26.0515 9.16956C25.776 9.44476 25.4346 9.58236 25.0273 9.58236H9.80455C9.63253 9.58236 9.49123 9.63766 9.38063 9.74825C9.27004 9.85884 9.21475 10.0001 9.21475 10.1722V35.8259C9.21475 35.9979 9.27004 36.1392 9.38063 36.2498C9.49123 36.3604 9.63253 36.4157 9.80455 36.4157H35.4583C35.6303 36.4157 35.7716 36.3604 35.8822 36.2498C35.9928 36.1392 36.0481 35.9979 36.0481 35.8259V20.6031C36.0481 20.1959 36.1859 19.8545 36.4615 19.579C36.7372 19.3035 37.0787 19.1657 37.4862 19.1657C37.8936 19.1657 38.235 19.3035 38.5102 19.579C38.7854 19.8545 38.923 20.1959 38.923 20.6031V35.8259C38.923 36.7787 38.5837 37.5943 37.9052 38.2728C37.2267 38.9514 36.4111 39.2906 35.4583 39.2906H9.80455ZM32.952 12.6785H30.5561C30.1488 12.6785 29.8074 12.5406 29.5319 12.265C29.2564 11.9894 29.1186 11.6478 29.1186 11.2404C29.1186 10.8329 29.2564 10.4916 29.5319 10.2163C29.8074 9.94115 30.1488 9.80355 30.5561 9.80355H32.952V7.40766C32.952 7.00037 33.0898 6.65897 33.3655 6.38345C33.6411 6.10796 33.9826 5.97021 34.3901 5.97021C34.7976 5.97021 35.1389 6.10796 35.4141 6.38345C35.6893 6.65897 35.8269 7.00037 35.8269 7.40766V9.80355H38.2228C38.6301 9.80355 38.9715 9.94136 39.247 10.217C39.5225 10.4926 39.6602 10.8342 39.6602 11.2416C39.6602 11.6491 39.5225 11.9904 39.247 12.2656C38.9715 12.5409 38.6301 12.6785 38.2228 12.6785H35.8269V15.0743C35.8269 15.4816 35.6891 15.823 35.4135 16.0985C35.1378 16.374 34.7963 16.5118 34.3888 16.5118C33.9813 16.5118 33.64 16.374 33.3648 16.0985C33.0896 15.823 32.952 15.4816 32.952 15.0743V12.6785ZM21.1571 30.7025L18.0167 26.6776C17.8373 26.4589 17.6094 26.3496 17.333 26.3496C17.0565 26.3496 16.8286 26.465 16.6493 26.696L13.6269 30.7173C13.3959 31.0121 13.3655 31.3168 13.5356 31.6314C13.7058 31.9459 13.961 32.1031 14.3014 32.1031H31.1089C31.4492 32.1031 31.7045 31.9459 31.8746 31.6314C32.0448 31.3168 32.0205 31.0121 31.8018 30.7173L27.2314 24.5951C27.052 24.3641 26.821 24.2486 26.5384 24.2486C26.2558 24.2486 26.0244 24.3657 25.8442 24.5998L21.1571 30.7025Z" fill="#F1F5F9"/>
</g>
</svg>
