<svg width="162" height="118" viewBox="0 0 162 118" fill="none" xmlns="http://www.w3.org/2000/svg">
<ellipse cx="59.288" cy="58.7197" rx="31.8372" ry="31.8372" transform="rotate(-14 59.288 58.7197)" fill="white"/>
<path d="M82.4982 52.6061C85.7832 65.7814 77.7655 79.1251 64.5902 82.4101C51.4149 85.6951 38.0712 77.6774 34.7862 64.5021C31.5012 51.3267 39.5189 37.983 52.6942 34.6981C65.8695 31.4131 79.2132 39.4308 82.4982 52.6061Z" stroke="#CBD5E1" stroke-width="3.84"/>
<ellipse cx="49.4265" cy="54.4795" rx="2.65063" ry="2.65063" transform="rotate(-14 49.4265 54.4795)" fill="#CBD5E1"/>
<ellipse cx="64.8606" cy="50.6262" rx="2.65063" ry="2.65063" transform="rotate(-14 64.8606 50.6262)" fill="#CBD5E1"/>
<path d="M50.0635 67.9824C54.0619 70.6279 63.7747 73.3055 70.6387 62.8525" stroke="#CBD5E1" stroke-width="3.84" stroke-linecap="round"/>
<ellipse cx="103.062" cy="58.4634" rx="31.8372" ry="31.8372" transform="rotate(30 103.062 58.4634)" fill="white"/>
<path d="M124.005 70.1868C117.215 81.9463 102.179 85.9754 90.4191 79.186C78.6596 72.3967 74.6305 57.3599 81.4199 45.6005C88.2092 33.841 103.246 29.8119 115.005 36.6012C126.765 43.3906 130.794 58.4273 124.005 70.1868Z" stroke="#CBD5E1" stroke-width="3.84"/>
<circle cx="98.9165" cy="48.5635" r="2.65063" transform="rotate(30 98.9165 48.5635)" fill="#CBD5E1"/>
<circle cx="112.691" cy="56.5161" r="2.65063" transform="rotate(30 112.691 56.5161)" fill="#CBD5E1"/>
<path d="M89.9946 58.7146C91.0332 63.3951 96.16 72.0684 108.359 69.3171" stroke="#CBD5E1" stroke-width="3.84" stroke-linecap="round"/>
</svg>
