<svg width="28" height="28" viewBox="0 0 28 28" fill="none" xmlns="http://www.w3.org/2000/svg">
<mask id="mask0_189_2176" style="mask-type:alpha" maskUnits="userSpaceOnUse" x="0" y="0" width="28" height="28">
<rect width="28" height="28" fill="#D9D9D9"/>
</mask>
<g mask="url(#mask0_189_2176)">
<path d="M5.02598 22.7499C4.43665 22.7499 3.93783 22.5458 3.52949 22.1374C3.12116 21.7291 2.91699 21.2303 2.91699 20.641V7.35898C2.91699 6.76966 3.12116 6.27083 3.52949 5.8625C3.93783 5.45417 4.43665 5.25 5.02598 5.25H10.5586C10.8398 5.25 11.1102 5.3046 11.3697 5.4138C11.6292 5.52298 11.8547 5.6733 12.0461 5.86475L13.7647 7.58333H22.9746C23.5639 7.58333 24.0628 7.7875 24.4711 8.19583C24.8794 8.60417 25.0836 9.103 25.0836 9.69232V20.641C25.0836 21.2303 24.8794 21.7291 24.4711 22.1374C24.0628 22.5458 23.5639 22.7499 22.9746 22.7499H5.02598ZM5.02598 21H22.9746C23.0793 21 23.1653 20.9663 23.2327 20.899C23.3 20.8317 23.3336 20.7457 23.3336 20.641V9.69232C23.3336 9.58761 23.3 9.5016 23.2327 9.43428C23.1653 9.36696 23.0793 9.3333 22.9746 9.3333H13.049L10.8166 7.10095C10.7792 7.06355 10.74 7.03737 10.6989 7.0224C10.6577 7.00745 10.6147 6.99997 10.5698 6.99997H5.02598C4.92127 6.99997 4.83526 7.03363 4.76794 7.10095C4.70062 7.16826 4.66696 7.25428 4.66696 7.35898V20.641C4.66696 20.7457 4.70062 20.8317 4.76794 20.899C4.83526 20.9663 4.92127 21 5.02598 21ZM13.2375 19.4294H21.7631V19.0121C21.7631 18.2344 21.3783 17.6234 20.6088 17.1791C19.8392 16.7349 18.8031 16.5128 17.5003 16.5128C16.1975 16.5128 15.1614 16.7349 14.3918 17.1791C13.6223 17.6234 13.2375 18.2344 13.2375 19.0121V19.4294ZM17.5003 14.9871C18.0672 14.9871 18.5492 14.7886 18.9463 14.3915C19.3434 13.9944 19.5419 13.5124 19.5419 12.9455C19.5419 12.3786 19.3434 11.8966 18.9463 11.4995C18.5492 11.1024 18.0672 10.9038 17.5003 10.9038C16.9334 10.9038 16.4514 11.1024 16.0543 11.4995C15.6572 11.8966 15.4587 12.3786 15.4587 12.9455C15.4587 13.5124 15.6572 13.9944 16.0543 14.3915C16.4514 14.7886 16.9334 14.9871 17.5003 14.9871Z" fill="#94A3B8"/>
</g>
</svg>
