<svg width="28" height="28" viewBox="0 0 28 28" fill="none" xmlns="http://www.w3.org/2000/svg">
<circle cx="14.025" cy="14.025" r="11.025" fill="white"/>
<mask id="mask0_189_2239" style="mask-type:alpha" maskUnits="userSpaceOnUse" x="4" y="3" width="22" height="22">
<rect x="4.0127" y="24.8242" width="21.6" height="21.6" transform="rotate(-90 4.0127 24.8242)" fill="#D9D9D9"/>
</mask>
<g mask="url(#mask0_189_2239)">
<path d="M17.2086 14.0245C17.2086 14.133 17.1913 14.2339 17.1566 14.3274C17.122 14.4209 17.0626 14.5097 16.9784 14.5939L12.9336 18.6387C12.809 18.7634 12.6523 18.8271 12.4637 18.83C12.275 18.8329 12.1155 18.7691 11.9851 18.6387C11.8547 18.5084 11.7896 18.3503 11.7896 18.1645C11.7896 17.9788 11.8547 17.8207 11.9851 17.6903L15.6509 14.0245L11.9851 10.3587C11.8605 10.2341 11.7968 10.0775 11.7939 9.88884C11.791 9.7002 11.8547 9.54069 11.9851 9.41031C12.1155 9.27992 12.2736 9.21472 12.4594 9.21472C12.6451 9.21472 12.8032 9.27992 12.9336 9.41031L16.9784 13.4551C17.0626 13.5393 17.122 13.6282 17.1566 13.7217C17.1913 13.8151 17.2086 13.9161 17.2086 14.0245Z" fill="#94A3B8"/>
</g>
</svg>
