<svg width="28" height="28" viewBox="0 0 28 28" fill="none" xmlns="http://www.w3.org/2000/svg">
<circle cx="13.975" cy="13.975" r="11.025" transform="rotate(-180 13.975 13.975)" fill="white"/>
<mask id="mask0_189_2241" style="mask-type:alpha" maskUnits="userSpaceOnUse" x="2" y="3" width="22" height="22">
<rect x="23.9873" y="3.17578" width="21.6" height="21.6" transform="rotate(90 23.9873 3.17578)" fill="#D9D9D9"/>
</mask>
<g mask="url(#mask0_189_2241)">
<path d="M10.7914 13.9755C10.7914 13.867 10.8087 13.7661 10.8434 13.6726C10.878 13.5791 10.9374 13.4903 11.0216 13.4061L15.0664 9.36127C15.191 9.23665 15.3477 9.1729 15.5363 9.17002C15.725 9.16712 15.8845 9.23087 16.0149 9.36127C16.1453 9.49165 16.2104 9.64972 16.2104 9.83548C16.2104 10.0212 16.1453 10.1793 16.0149 10.3097L12.3491 13.9755L16.0149 17.6413C16.1395 17.7659 16.2032 17.9225 16.2061 18.1112C16.209 18.2998 16.1453 18.4593 16.0149 18.5897C15.8845 18.7201 15.7264 18.7853 15.5406 18.7853C15.3549 18.7853 15.1968 18.7201 15.0664 18.5897L11.0216 14.5449C10.9374 14.4607 10.878 14.3718 10.8434 14.2783C10.8087 14.1849 10.7914 14.0839 10.7914 13.9755Z" fill="#94A3B8"/>
</g>
</svg>
