<svg width="28" height="28" viewBox="0 0 28 28" fill="none" xmlns="http://www.w3.org/2000/svg">
<mask id="mask0_189_2217" style="mask-type:alpha" maskUnits="userSpaceOnUse" x="2" y="2" width="24" height="24">
<rect x="2" y="2" width="24" height="24" fill="#D9D9D9"/>
</mask>
<g mask="url(#mask0_189_2217)">
<path d="M11.825 22.6998C10.1083 22.2165 8.70833 21.2706 7.625 19.8623C6.54167 18.454 6 16.8331 6 14.9998C6 14.0498 6.15833 13.1456 6.475 12.2873C6.79167 11.429 7.24167 10.6415 7.825 9.92481C8.00833 9.72481 8.23333 9.62064 8.5 9.61231C8.76667 9.60397 9.00833 9.70814 9.225 9.92481C9.40833 10.1081 9.50417 10.3331 9.5125 10.5998C9.52083 10.8665 9.43333 11.1165 9.25 11.3498C8.85 11.8665 8.54167 12.4331 8.325 13.0498C8.10833 13.6665 8 14.3165 8 14.9998C8 16.3498 8.39583 17.554 9.1875 18.6123C9.97917 19.6706 11 20.3915 12.25 20.7748C12.4667 20.8415 12.6458 20.9665 12.7875 21.1498C12.9292 21.3331 13 21.5331 13 21.7498C13 22.0831 12.8833 22.3456 12.65 22.5373C12.4167 22.729 12.1417 22.7831 11.825 22.6998ZM16.175 22.6998C15.8583 22.7831 15.5833 22.7248 15.35 22.5248C15.1167 22.3248 15 22.0581 15 21.7248C15 21.5248 15.0708 21.3331 15.2125 21.1498C15.3542 20.9665 15.5333 20.8415 15.75 20.7748C17 20.3748 18.0208 19.6498 18.8125 18.5998C19.6042 17.5498 20 16.3498 20 14.9998C20 13.3331 19.4167 11.9165 18.25 10.7498C17.0833 9.58314 15.6667 8.9998 14 8.9998H13.925L14.325 9.39981C14.5083 9.58314 14.6 9.81647 14.6 10.0998C14.6 10.3831 14.5083 10.6165 14.325 10.7998C14.1417 10.9831 13.9083 11.0748 13.625 11.0748C13.3417 11.0748 13.1083 10.9831 12.925 10.7998L10.825 8.69981C10.725 8.59981 10.6542 8.49147 10.6125 8.3748C10.5708 8.25814 10.55 8.13314 10.55 7.9998C10.55 7.86647 10.5708 7.74147 10.6125 7.6248C10.6542 7.50814 10.725 7.3998 10.825 7.2998L12.925 5.1998C13.1083 5.01647 13.3417 4.9248 13.625 4.9248C13.9083 4.9248 14.1417 5.01647 14.325 5.1998C14.5083 5.38314 14.6 5.61647 14.6 5.8998C14.6 6.18314 14.5083 6.41647 14.325 6.5998L13.925 6.9998H14C16.2333 6.9998 18.125 7.77481 19.675 9.32481C21.225 10.8748 22 12.7665 22 14.9998C22 16.8165 21.4583 18.4331 20.375 19.8498C19.2917 21.2665 17.8917 22.2165 16.175 22.6998Z" fill="#B7C8DE"/>
</g>
</svg>
